<svg width="1180" height="420" viewBox="0 0 1180 420" xmlns="http://www.w3.org/2000/svg" font-family="'IBM Plex Mono','SFMono-Regular',Consolas,monospace">
  <defs>
    <linearGradient id="topline" x1="0%" y1="0%" x2="100%" y2="0%">
      <stop offset="0%" stop-color="#C9A227" stop-opacity="0"/>
      <stop offset="50%" stop-color="#C9A227" stop-opacity="0.9"/>
      <stop offset="100%" stop-color="#6F93A6" stop-opacity="0"/>
    </linearGradient>
  </defs>

  <!-- card background -->
  <rect width="1180" height="420" rx="18" fill="#0A0908"/>
  <rect width="1180" height="420" rx="18" fill="none" stroke="#2B2419" stroke-width="1"/>
  <rect x="24" y="0" width="1132" height="2" fill="url(#topline)"/>

  <!-- header -->
  <text x="30" y="34" fill="#837C6B" font-size="10" letter-spacing="2" font-weight="600">REFERENCE ARCHITECTURE — SMART CITY GAS &amp; AIR SAFETY PLATFORM</text>
  <circle cx="1122" cy="29" r="3.5" fill="#7E9A72"/>
  <text x="1132" y="33" text-anchor="end" fill="#7E9A72" font-size="10" letter-spacing="1">9 SERVICES</text>
  <line x1="24" y1="50" x2="1156" y2="50" stroke="#2B2419" stroke-width="1"/>

  <!-- tier labels -->
  <text x="530" y="78" text-anchor="middle" fill="#837C6B" font-size="9" letter-spacing="2">PROCESS — MEDALLION (PARALLEL, ISOLATED STREAMING QUERIES)</text>
  <text x="1065" y="78" text-anchor="middle" fill="#837C6B" font-size="9" letter-spacing="2">SERVE</text>

  <!-- edges (base) -->
  <g stroke="#2B2419" stroke-width="1.4" fill="none">
    <path d="M150,220 L230,220"/>
    <path d="M360,220 Q410,140 460,90"/>
    <path d="M360,220 L460,220"/>
    <path d="M360,220 Q410,300 460,350"/>
    <path d="M600,350 Q660,300 700,220"/>
    <path d="M840,220 Q900,140 980,90"/>
    <path d="M840,220 L980,220"/>
    <path d="M840,220 Q900,300 980,350"/>
  </g>
  <!-- edges (flow accent, static — GitHub strips SVG animation from README previews in some clients, so this is a solid accent, not relied on to animate) -->
  <g stroke-width="1.8" fill="none" stroke-linecap="round">
    <path d="M150,220 L230,220" stroke="#C9A227"/>
    <path d="M360,220 Q410,140 460,90" stroke="#A9754A"/>
    <path d="M360,220 L460,220" stroke="#B7B1A2"/>
    <path d="M360,220 Q410,300 460,350" stroke="#C9A227"/>
    <path d="M600,350 Q660,300 700,220" stroke="#C9A227"/>
    <path d="M840,220 Q900,140 980,90" stroke="#6F93A6"/>
    <path d="M840,220 L980,220" stroke="#6F93A6"/>
    <path d="M840,220 Q900,300 980,350" stroke="#6F93A6"/>
  </g>

  <!-- Simulator -->
  <rect x="20" y="185" width="130" height="70" rx="10" fill="#161310" stroke="#2B2419"/>
  <rect x="20" y="185" width="4" height="70" fill="#6F93A6"/>
  <text x="85" y="216" text-anchor="middle" fill="#F4EFE4" font-size="11" font-weight="600">IoT Simulator</text>
  <text x="85" y="233" text-anchor="middle" fill="#837C6B" font-size="9">3,000 nodes · 27 govs</text>

  <!-- Kafka -->
  <rect x="230" y="185" width="130" height="70" rx="10" fill="#161310" stroke="#2B2419"/>
  <rect x="230" y="185" width="4" height="70" fill="#C9A227"/>
  <text x="295" y="216" text-anchor="middle" fill="#F4EFE4" font-size="11" font-weight="600">Kafka</text>
  <text x="295" y="233" text-anchor="middle" fill="#837C6B" font-size="9">3 partitions · keyed</text>

  <!-- Bronze -->
  <rect x="460" y="60" width="140" height="60" rx="10" fill="#161310" stroke="#2B2419"/>
  <rect x="460" y="60" width="4" height="60" fill="#A9754A"/>
  <text x="530" y="86" text-anchor="middle" fill="#F4EFE4" font-size="11" font-weight="600">Bronze</text>
  <text x="530" y="103" text-anchor="middle" fill="#837C6B" font-size="9">raw parquet · 10s</text>

  <!-- Silver -->
  <rect x="460" y="190" width="140" height="60" rx="10" fill="#161310" stroke="#2B2419"/>
  <rect x="460" y="190" width="4" height="60" fill="#B7B1A2"/>
  <text x="530" y="216" text-anchor="middle" fill="#F4EFE4" font-size="11" font-weight="600">Silver</text>
  <text x="530" y="233" text-anchor="middle" fill="#837C6B" font-size="9">validated · 10s</text>

  <!-- Gold -->
  <rect x="460" y="320" width="140" height="60" rx="10" fill="#161310" stroke="#2B2419"/>
  <rect x="460" y="320" width="4" height="60" fill="#C9A227"/>
  <text x="530" y="346" text-anchor="middle" fill="#F4EFE4" font-size="11" font-weight="600">Gold</text>
  <text x="530" y="363" text-anchor="middle" fill="#837C6B" font-size="9">aggregated · 30s</text>

  <!-- SQL Server -->
  <rect x="700" y="185" width="140" height="70" rx="10" fill="#161310" stroke="#2B2419"/>
  <rect x="700" y="185" width="4" height="70" fill="#C9A227"/>
  <text x="770" y="216" text-anchor="middle" fill="#F4EFE4" font-size="11" font-weight="600">SQL Server</text>
  <text x="770" y="233" text-anchor="middle" fill="#837C6B" font-size="9">gold schema only</text>

  <!-- Grafana -->
  <rect x="980" y="60" width="170" height="60" rx="10" fill="#161310" stroke="#2B2419"/>
  <rect x="980" y="60" width="4" height="60" fill="#6F93A6"/>
  <text x="1065" y="86" text-anchor="middle" fill="#F4EFE4" font-size="11" font-weight="600">Grafana</text>
  <text x="1065" y="103" text-anchor="middle" fill="#837C6B" font-size="9">ops dashboard</text>

  <!-- React -->
  <rect x="980" y="190" width="170" height="60" rx="10" fill="#161310" stroke="#2B2419"/>
  <rect x="980" y="190" width="4" height="60" fill="#6F93A6"/>
  <text x="1065" y="216" text-anchor="middle" fill="#F4EFE4" font-size="11" font-weight="600">React Command Center</text>
  <text x="1065" y="233" text-anchor="middle" fill="#837C6B" font-size="9">public dashboard</text>

  <!-- ARIA -->
  <rect x="980" y="320" width="170" height="60" rx="10" fill="#161310" stroke="#2B2419"/>
  <rect x="980" y="320" width="4" height="60" fill="#6F93A6"/>
  <text x="1065" y="346" text-anchor="middle" fill="#F4EFE4" font-size="11" font-weight="600">ARIA Assistant</text>
  <text x="1065" y="363" text-anchor="middle" fill="#837C6B" font-size="9">bilingual · Gemini</text>

  <!-- footer -->
  <line x1="24" y1="396" x2="1156" y2="396" stroke="#2B2419" stroke-width="1"/>
  <circle cx="30" cy="408" r="3" fill="#7E9A72"/>
  <text x="40" y="412" fill="#7E9A72" font-size="9">DOCKER COMPOSE · 1 COMMAND</text>
  <text x="590" y="412" text-anchor="middle" fill="#4a4638" font-size="9">BRONZE → SILVER → GOLD · EACH AN INDEPENDENT, ISOLATED STREAM</text>
  <text x="1150" y="412" text-anchor="end" fill="#4a4638" font-size="9">v2.0</text>
</svg>
